HIERARCHY
ROOT Hips
{
	OFFSET -0.001795 -0.223333 0.028219
	CHANNELS 6 Xposition Yposition Zposition Zrotation Yrotation Xrotation 
	JOINT LeftUpLeg
	{
		OFFSET 0.069520 -0.091406 -0.006815
		CHANNELS 3 Zrotation Yrotation Xrotation
		JOINT LeftLeg
		{
			OFFSET 0.034277 -0.375199 -0.004496
			CHANNELS 3 Zrotation Yrotation Xrotation
			JOINT LeftFoot
			{
				OFFSET -0.013596 -0.397961 -0.043693
				CHANNELS 3 Zrotation Yrotation Xrotation
				JOINT LeftToe
				{
					OFFSET 0.026358 -0.055791 0.119288
					CHANNELS 3 Zrotation Yrotation Xrotation
					End Site
					{
						OFFSET 0.000000 0.000000 0.000000
					}
				}
			}
		}
	}
	JOINT RightUpLeg
	{
		OFFSET -0.067670 -0.090522 -0.004320
		CHANNELS 3 Zrotation Yrotation Xrotation
		JOINT RightLeg
		{
			OFFSET -0.038290 -0.382569 -0.008850
			CHANNELS 3 Zrotation Yrotation Xrotation
			JOINT RightFoot
			{
				OFFSET 0.015774 -0.398415 -0.042312
				CHANNELS 3 Zrotation Yrotation Xrotation
				JOINT RightToe
				{
					OFFSET -0.025372 -0.048144 0.123348
					CHANNELS 3 Zrotation Yrotation Xrotation
					End Site
					{
						OFFSET 0.000000 0.000000 0.000000
					}
				}
			}
		}
	}
	JOINT Spine
	{
		OFFSET -0.002533 0.108963 -0.026696
		CHANNELS 3 Zrotation Yrotation Xrotation
		JOINT Spine1
		{
			OFFSET 0.005487 0.135180 0.001092
			CHANNELS 3 Zrotation Yrotation Xrotation
			JOINT Spine2
			{
				OFFSET 0.001457 0.052922 0.025425
				CHANNELS 3 Zrotation Yrotation Xrotation
				JOINT Neck
				{
					OFFSET -0.002778 0.213870 -0.042857
					CHANNELS 3 Zrotation Yrotation Xrotation
					JOINT Head
					{
						OFFSET 0.005152 0.064970 0.051349
						CHANNELS 3 Zrotation Yrotation Xrotation
						End Site
						{
							OFFSET 0.000000 0.000000 0.000000
						}
					}
				}
				JOINT LeftShoulder
				{
					OFFSET 0.078845 0.121749 -0.034090
					CHANNELS 3 Zrotation Yrotation Xrotation
					JOINT LeftArm
					{
						OFFSET 0.090977 0.030469 -0.008868
						CHANNELS 3 Zrotation Yrotation Xrotation
						JOINT LeftForeArm
						{
							OFFSET 0.259612 -0.012772 -0.027456
							CHANNELS 3 Zrotation Yrotation Xrotation
							JOINT LeftHand
							{
								OFFSET 0.249234 0.008986 -0.001171
								CHANNELS 3 Zrotation Yrotation Xrotation
								End Site
								{
									OFFSET 0.000000 0.000000 0.000000
								}
							}
						}
					}
				}
				JOINT RightShoulder
				{
					OFFSET -0.081759 0.118833 -0.038615
					CHANNELS 3 Zrotation Yrotation Xrotation
					JOINT RightArm
					{
						OFFSET -0.096012 0.032551 -0.009143
						CHANNELS 3 Zrotation Yrotation Xrotation
						JOINT RightForeArm
						{
							OFFSET -0.253742 -0.013329 -0.021401
							CHANNELS 3 Zrotation Yrotation Xrotation
							JOINT RightHand
							{
								OFFSET -0.255298 0.007772 -0.005559
								CHANNELS 3 Zrotation Yrotation Xrotation
								End Site
								{
									OFFSET 0.000000 0.000000 0.000000
								}
							}
						}
					}
				}
			}
		}
	}
}
MOTION
Frames: 10
Frame Time: 0.050000
0.000000 0.943527 0.000000 -0.550832 -5.260828 -3.592264 -4.856471 -0.284416 -1.981924 -0.825329 -0.015329 5.353763 0.495074 3.418136 6.976798 0.000000 0.000000 0.000000 -2.019561 1.070998 -11.971605 5.747362 0.359028 51.813332 -3.004412 -10.037573 7.934682 0.000000 0.000000 0.000000 -1.916156 -0.141353 6.361354 -0.714856 0.344995 -1.685439 0.460224 -4.792847 9.327859 1.944302 -0.890490 -17.365144 0.000000 0.000000 0.000000 -26.044726 -6.665598 4.538890 -47.701105 -11.625354 -2.505058 0.323495 -32.085347 1.787013 0.000000 0.000000 0.000000 22.827064 6.427267 -0.855932 53.786983 -0.162192 -5.164945 2.823222 24.287471 1.022788 0.000000 0.000000 0.000000 
0.001729 0.945026 0.024076 -1.401011 -2.961926 -3.325284 -3.980864 0.107775 0.828572 -0.887917 0.037266 2.728824 -0.727217 1.155002 6.430003 0.000000 0.000000 0.000000 -2.004010 1.478577 -16.685177 6.039494 -0.568256 50.577711 -3.684912 -11.303005 7.959805 0.000000 0.000000 0.000000 -1.446225 -0.155865 5.596357 0.295410 -0.131437 -0.729775 -0.385293 -6.565343 9.422995 2.302792 -1.048144 -18.928701 0.000000 0.000000 0.000000 -23.812795 -6.799377 4.596218 -50.436473 -13.765553 -1.594288 1.796400 -31.731781 1.450056 0.000000 0.000000 0.000000 21.911480 5.738717 -1.210400 55.603294 -0.809149 -5.744468 3.358436 25.099461 1.139358 0.000000 0.000000 0.000000 
0.002462 0.945456 0.047913 -1.628221 -1.205499 -3.691186 -4.702229 0.324750 2.379527 0.864830 -0.239432 3.425636 -1.313168 -0.178505 5.547151 0.000000 0.000000 0.000000 -1.169352 1.821038 -19.536102 4.177302 -0.045732 44.977498 -3.214514 -9.575163 5.201625 0.000000 0.000000 0.000000 -0.959983 -0.199600 6.094861 0.496391 -0.198585 -1.523130 -0.426615 -6.473957 10.068417 1.207464 -0.349201 -18.113607 0.000000 0.000000 0.000000 -24.191390 -7.671672 4.821371 -49.348733 -14.579085 -1.262275 1.516477 -33.190390 1.532444 0.000000 0.000000 0.000000 20.989770 4.882636 -1.174407 57.311699 -1.697251 -6.640720 2.405249 26.161259 1.060336 0.000000 0.000000 0.000000 
0.002428 0.943196 0.072026 -1.748919 0.788694 -4.012272 -4.378138 0.567151 4.317276 0.892883 -0.243122 3.378290 -1.997570 -2.006620 4.195261 0.000000 0.000000 0.000000 -0.445076 2.047560 -21.302976 1.951154 0.533963 36.618140 -2.404548 -7.284081 3.774952 0.000000 0.000000 0.000000 -1.078897 -0.219112 6.654036 0.846973 -0.365376 -1.175699 -0.247944 -7.719049 9.608252 0.848173 -0.094322 -19.207842 0.000000 0.000000 0.000000 -23.381258 -6.462355 4.061150 -50.883092 -14.785154 -1.066802 1.817248 -36.603270 1.730574 0.000000 0.000000 0.000000 20.902553 4.574459 -1.407383 57.193288 -1.772873 -6.606515 3.492516 27.249054 1.314620 0.000000 0.000000 0.000000 
0.001576 0.939468 0.097147 -1.874603 2.599996 -4.351678 -4.404898 0.682989 5.279575 1.729893 -0.457652 5.215029 -2.253527 -3.468481 2.271339 0.000000 0.000000 0.000000 0.441965 2.260419 -22.524650 0.171947 0.821447 26.948765 -1.018182 -4.627107 5.505602 0.000000 0.000000 0.000000 -0.860201 -0.255920 7.166182 0.696613 -0.275999 -1.366353 -0.008920 -7.922255 10.209996 0.808654 0.008793 -19.437164 0.000000 0.000000 0.000000 -23.715982 -6.757693 4.053527 -50.950430 -15.149338 -0.935188 2.160771 -37.739524 1.649334 0.000000 0.000000 0.000000 20.761059 4.490963 -1.191185 58.000642 -1.494676 -6.717613 3.711939 27.549927 1.440105 0.000000 0.000000 0.000000 
0.000306 0.935154 0.124471 -1.932598 4.338108 -4.389824 -3.844036 0.706916 5.783330 1.620743 -0.574665 7.514800 -2.512048 -5.008938 0.548701 0.000000 0.000000 0.000000 0.171017 2.149647 -22.677583 0.310146 0.443816 17.131098 1.217736 -0.346735 7.430103 0.000000 0.000000 0.000000 -0.845379 -0.281318 7.610163 0.848209 -0.327185 -1.578957 0.181036 -8.570693 10.254704 0.250469 0.441317 -20.961955 0.000000 0.000000 0.000000 -23.593289 -5.781657 3.359156 -51.739257 -14.357325 -1.218233 1.107312 -39.630562 2.141567 0.000000 0.000000 0.000000 19.907768 4.512039 -0.980893 59.361792 -0.744652 -6.618678 3.648305 27.859440 1.462532 0.000000 0.000000 0.000000 
-0.001269 0.930999 0.154702 -1.801569 6.128636 -3.871347 -4.012254 0.799121 6.534135 2.723065 -0.847688 8.578782 -2.815448 -6.470435 -0.670869 0.000000 0.000000 0.000000 0.259810 2.082950 -22.614502 0.191166 0.259042 9.597772 5.367313 6.610412 11.283458 0.000000 0.000000 0.000000 -0.606534 -0.279145 7.101260 1.123367 -0.416809 -2.080738 -0.325031 -7.935873 10.699479 0.336334 0.553887 -20.080157 0.000000 0.000000 0.000000 -23.061866 -5.192848 2.452544 -52.555672 -12.933913 -1.711753 -0.256418 -41.010901 2.591001 0.000000 0.000000 0.000000 20.770846 4.159719 -0.758694 59.324735 0.051005 -6.303113 2.840763 28.691655 1.456046 0.000000 0.000000 0.000000 
-0.002510 0.927218 0.188280 -1.599102 8.247063 -3.570743 -3.849396 0.851418 7.231595 3.456599 -1.147400 10.424029 -3.465560 -8.170739 -1.046549 0.000000 0.000000 0.000000 0.615831 2.062521 -22.643803 -0.091180 0.255137 8.185488 10.727225 13.855873 16.651855 0.000000 0.000000 0.000000 -0.360260 -0.284783 6.808745 1.271001 -0.470621 -2.055987 -0.270426 -7.690994 10.341323 0.164970 0.808317 -19.678698 0.000000 0.000000 0.000000 -23.896097 -4.104313 1.335668 -52.776820 -10.965467 -2.448075 -2.104145 -40.654961 3.062570 0.000000 0.000000 0.000000 21.073452 3.805189 -0.582917 59.336640 0.897912 -5.911441 0.330190 29.136807 0.974590 0.000000 0.000000 0.000000 
-0.002949 0.924831 0.224759 -1.369138 10.335732 -3.296503 -3.405120 0.852149 7.753191 3.616271 -1.490066 13.426357 -3.913446 -9.206658 -1.114924 0.000000 0.000000 0.000000 1.095076 2.006328 -21.795365 -0.889803 0.429425 9.907438 14.856645 19.409247 19.369277 0.000000 0.000000 0.000000 0.145021 -0.275738 6.041079 1.474894 -0.563281 -1.877373 -0.318472 -7.237064 9.474687 0.960985 0.462675 -18.443973 0.000000 0.000000 0.000000 -24.330385 -3.396957 0.326662 -53.098461 -7.965583 -3.553196 -5.695814 -38.962160 3.952813 0.000000 0.000000 0.000000 21.228793 3.196761 -0.492376 59.180281 1.659407 -5.495852 -2.229649 30.337360 0.483645 0.000000 0.000000 0.000000 
-0.002082 0.927369 0.261999 -1.498371 11.653119 -2.961639 -3.120687 0.759946 7.108963 4.273779 -2.209640 18.089086 -4.831076 -8.955772 1.573805 0.000000 0.000000 0.000000 1.067323 1.904115 -21.121100 -0.445806 0.342297 12.549274 18.021121 24.519045 19.684427 0.000000 0.000000 0.000000 0.752956 -0.248170 4.998831 1.787880 -0.836443 -0.302743 0.190494 -6.343681 7.644062 1.063319 0.547691 -17.848461 0.000000 0.000000 0.000000 -24.821670 -1.810321 -1.198910 -53.916080 -4.573295 -4.814600 -8.175056 -38.015574 4.494907 0.000000 0.000000 0.000000 20.758255 2.829486 -0.316247 58.461764 2.432884 -4.923560 -3.064968 31.400452 0.359688 0.000000 0.000000 0.000000 
